<svg width="34" height="34" viewBox="0 0 34 34" fill="none" xmlns="http://www.w3.org/2000/svg">
<path d="M33.1062 23.4889C33.1062 29.5142 29.5142 33.1062 23.4889 33.1062H21.519C20.6086 33.1062 19.8637 32.3613 19.8637 31.4509V21.8998C19.8637 21.4528 20.2279 21.0721 20.6748 21.0721L23.5882 21.0225C23.8199 21.0059 24.0186 20.8404 24.0682 20.6086L24.6476 17.447C24.6972 17.149 24.4655 16.8676 24.151 16.8676L20.6252 16.9173C20.1617 16.9173 19.7975 16.5531 19.781 16.1062L19.7148 12.0507C19.7148 11.7858 19.9299 11.5541 20.2113 11.5541L24.1841 11.4879C24.4655 11.4879 24.6807 11.2727 24.6807 10.9913L24.6145 7.0185C24.6145 6.7371 24.3993 6.52193 24.1179 6.52193L19.6485 6.58816C16.9007 6.63781 14.7157 8.88902 14.7654 11.6368L14.8481 16.1889C14.8647 16.6524 14.5005 17.0166 14.037 17.0332L12.0507 17.0663C11.7693 17.0663 11.5541 17.2814 11.5541 17.5629L11.6037 20.7079C11.6037 20.9893 11.8189 21.2045 12.1003 21.2045L14.0867 21.1714C14.5502 21.1714 14.9144 21.5356 14.9309 21.9825L15.0799 31.4178C15.0964 32.3448 14.3515 33.1062 13.4246 33.1062H9.61736C3.59203 33.1062 0 29.5142 0 23.4723V9.61736C0 3.59203 3.59203 0 9.61736 0H23.4889C29.5142 0 33.1062 3.59203 33.1062 9.61736V23.4889Z" fill="#DF5413"/>
</svg>
