<svg width="36" height="36" viewBox="0 0 36 36" fill="none" xmlns="http://www.w3.org/2000/svg">
<g id="&#240;&#159;&#166;&#134; icon &#34;facebook icon&#34;">
<path id="Vector" d="M35.1503 24.9039C35.1503 31.2922 31.3419 35.1006 24.9536 35.1006H22.8651C21.8998 35.1006 21.11 34.3108 21.11 33.3456V23.219C21.11 22.7452 21.4961 22.3415 21.97 22.3415L25.0589 22.2889C25.3046 22.2713 25.5152 22.0958 25.5678 21.8501L26.1821 18.498C26.2347 18.1821 25.989 17.8837 25.6556 17.8837L21.9173 17.9364C21.4259 17.9364 21.0398 17.5503 21.0223 17.0764L20.9521 12.7766C20.9521 12.4958 21.1802 12.2501 21.4786 12.2501L25.6907 12.1799C25.989 12.1799 26.2172 11.9518 26.2172 11.6534L26.147 7.44131C26.147 7.14295 25.9188 6.91482 25.6205 6.91482L20.8819 6.98503C17.9685 7.03769 15.6519 9.42451 15.7045 12.3379L15.7923 17.1642C15.8098 17.6556 15.4237 18.0417 14.9323 18.0593L12.8263 18.0944C12.5279 18.0944 12.2998 18.3225 12.2998 18.6209L12.3525 21.9554C12.3525 22.2538 12.5806 22.4819 12.8789 22.4819L14.985 22.4468C15.4764 22.4468 15.8625 22.8329 15.88 23.3068L16.038 33.3105C16.0555 34.2933 15.2658 35.1006 14.283 35.1006H10.2464C3.8581 35.1006 0.0496826 31.2922 0.0496826 24.8863V10.1967C0.0496826 3.80841 3.8581 0 10.2464 0H24.9536C31.3419 0 35.1503 3.80841 35.1503 10.1967V24.9039Z" fill="black"/>
</g>
</svg>
