<svg width="35" height="36" viewBox="0 0 35 36" fill="none" xmlns="http://www.w3.org/2000/svg">
<g id="&#240;&#159;&#166;&#134; icon &#34;instagram fill&#34;">
<path id="Vector" fill-rule="evenodd" clip-rule="evenodd" d="M10.1659 0.61013C12.0109 0.525563 12.599 0.506348 17.2971 0.506348C21.9961 0.506348 22.5833 0.526522 24.4273 0.61013C26.2694 0.693738 27.5274 0.98683 28.6277 1.41445C29.7817 1.84893 30.8271 2.5297 31.6911 3.40939C32.5709 4.27334 33.2518 5.31881 33.6861 6.47289C34.1137 7.57318 34.4058 8.83107 34.4904 10.6722C34.575 12.5173 34.5942 13.1054 34.5942 17.8035C34.5942 22.5015 34.5741 23.0896 34.4904 24.9348C34.4068 26.7758 34.1137 28.0338 33.6861 29.134C33.2441 30.2709 32.6521 31.2366 31.6911 32.1975C30.8272 33.0773 29.7817 33.7582 28.6277 34.1925C27.5274 34.62 26.2694 34.9122 24.4284 34.9968C22.5833 35.0814 21.9952 35.1006 17.2971 35.1006C12.599 35.1006 12.0109 35.0805 10.1659 34.9968C8.32472 34.9131 7.06683 34.62 5.96655 34.1925C4.82973 33.7505 3.86399 33.1584 2.90304 32.1975C2.0232 31.3336 1.34238 30.2881 0.908099 29.134C0.480482 28.0338 0.18835 26.7758 0.103783 24.9348C0.0192155 23.0896 0 22.5025 0 17.8035C0 13.1044 0.0201747 12.5173 0.103783 10.6732C0.187391 8.83107 0.480482 7.57318 0.908099 6.47289C1.34259 5.31889 2.02335 4.27347 2.90304 3.40939C3.76698 2.52954 4.81245 1.84873 5.96655 1.41445C7.06683 0.98683 8.32472 0.694697 10.1659 0.61013ZM24.287 3.72361C22.4631 3.64096 21.9154 3.62271 17.2971 3.62271C12.6788 3.62271 12.131 3.64096 10.3072 3.72361C8.62069 3.80049 7.70491 4.08204 7.09565 4.3194C6.28846 4.63267 5.71188 5.00743 5.10649 5.61283C4.50206 6.21823 4.12632 6.79481 3.81305 7.602C3.57569 8.21125 3.29414 9.12704 3.21726 10.8135C3.13461 12.6374 3.11636 13.1851 3.11636 17.8035C3.11636 22.4218 3.13461 22.9695 3.21726 24.7934C3.29414 26.4799 3.57569 27.3957 3.81305 28.005C4.09015 28.7563 4.53214 29.4359 5.10649 29.9942C5.66455 30.5684 6.34428 31.0104 7.09565 31.2875C7.70491 31.525 8.62069 31.8064 10.3072 31.8833C12.131 31.966 12.6778 31.9843 17.2971 31.9843C21.9164 31.9843 22.4631 31.966 24.287 31.8833C25.9735 31.8064 26.8893 31.525 27.4986 31.2875C28.3058 30.9743 28.8824 30.5996 29.4878 29.9942C30.0621 29.4361 30.5041 28.7563 30.7812 28.005C31.0186 27.3957 31.3001 26.4799 31.377 24.7934C31.4597 22.9695 31.4779 22.4218 31.4779 17.8035C31.4779 13.1851 31.4597 12.6374 31.377 10.8135C31.3001 9.12704 31.0186 8.21125 30.7812 7.602C30.4679 6.79481 30.0932 6.21823 29.4878 5.61283C28.8824 5.00841 28.3058 4.63267 27.4986 4.3194C26.8893 4.08204 25.9735 3.80049 24.287 3.72361ZM15.0886 23.1355C15.7888 23.4257 16.5392 23.5749 17.2971 23.5749C18.8279 23.5749 20.2958 22.9668 21.3781 21.8845C22.4606 20.8022 23.0687 19.3341 23.0687 17.8035C23.0687 16.2728 22.4606 14.8048 21.3781 13.7224C20.2958 12.6401 18.8279 12.032 17.2971 12.032C16.5392 12.032 15.7888 12.1813 15.0886 12.4713C14.3882 12.7614 13.752 13.1865 13.2161 13.7224C12.6802 14.2583 12.2551 14.8946 11.965 15.5948C11.675 16.295 11.5257 17.0455 11.5257 17.8035C11.5257 18.5614 11.675 19.3119 11.965 20.0121C12.2551 20.7124 12.6802 21.3486 13.2161 21.8845C13.752 22.4204 14.3882 22.8456 15.0886 23.1355ZM11.0105 11.5168C12.6778 9.84943 14.9392 8.91273 17.2971 8.91273C19.6552 8.91273 21.9165 9.84943 23.5838 11.5168C25.2511 13.1841 26.1878 15.4456 26.1878 17.8035C26.1878 20.1614 25.2511 22.4227 23.5838 24.0902C21.9165 25.7575 19.6552 26.6942 17.2971 26.6942C14.9392 26.6942 12.6778 25.7575 11.0105 24.0902C9.34315 22.4227 8.40645 20.1614 8.40645 17.8035C8.40645 15.4456 9.34315 13.1841 11.0105 11.5168ZM28.1592 10.2374C28.5533 9.84322 28.7747 9.30868 28.7747 8.7513C28.7747 8.19391 28.5533 7.65937 28.1592 7.26524C27.765 6.87112 27.2305 6.6497 26.6731 6.6497C26.1158 6.6497 25.5812 6.87112 25.1871 7.26524C24.7929 7.65937 24.5715 8.19391 24.5715 8.7513C24.5715 9.30868 24.7929 9.84322 25.1871 10.2374C25.5812 10.6315 26.1158 10.8529 26.6731 10.8529C27.2305 10.8529 27.765 10.6315 28.1592 10.2374Z" fill="black"/>
</g>
</svg>
