<svg width="35" height="35" viewBox="0 0 35 35" fill="none" xmlns="http://www.w3.org/2000/svg">
<path fill-rule="evenodd" clip-rule="evenodd" d="M10.1426 0.103545C11.9834 0.0191715 12.5702 0 17.2575 0C21.9457 0 22.5315 0.0201285 24.3714 0.103545C26.2093 0.186961 27.4644 0.479382 28.5621 0.906019C29.7135 1.33951 30.7565 2.01872 31.6186 2.89639C32.4963 3.75837 33.1757 4.80144 33.609 5.95288C34.0356 7.05065 34.327 8.30566 34.4115 10.1426C34.4959 11.9834 34.515 12.5702 34.515 17.2575C34.515 21.9448 34.4949 22.5315 34.4115 24.3725C34.328 26.2093 34.0356 27.4644 33.609 28.5621C33.168 29.6964 32.5773 30.6598 31.6186 31.6186C30.7566 32.4963 29.7135 33.1757 28.5621 33.609C27.4644 34.0356 26.2093 34.327 24.3725 34.4115C22.5315 34.4959 21.9448 34.515 17.2575 34.515C12.5702 34.515 11.9834 34.4949 10.1426 34.4115C8.30566 34.328 7.05065 34.0356 5.95288 33.609C4.81867 33.168 3.85514 32.5773 2.89639 31.6186C2.01856 30.7566 1.33931 29.7135 0.906019 28.5621C0.479382 27.4644 0.187918 26.2093 0.103545 24.3725C0.0191715 22.5315 0 21.9457 0 17.2575C0 12.5692 0.0201285 11.9834 0.103545 10.1436C0.186961 8.30566 0.479382 7.05065 0.906019 5.95288C1.33951 4.80152 2.01872 3.7585 2.89639 2.89639C3.75835 2.01856 4.80143 1.33931 5.95288 0.906019C7.05065 0.479382 8.30566 0.187918 10.1426 0.103545ZM24.2314 3.20989C22.4117 3.12744 21.8653 3.10922 17.2575 3.10922C12.6497 3.10922 12.1033 3.12744 10.2836 3.20989C8.60095 3.2866 7.68726 3.5675 7.0794 3.80432C6.27406 4.11687 5.6988 4.49078 5.09479 5.09479C4.49175 5.6988 4.11687 6.27406 3.80432 7.0794C3.5675 7.68726 3.2866 8.60095 3.20989 10.2836C3.12744 12.1033 3.10922 12.6497 3.10922 17.2575C3.10922 21.8653 3.12744 22.4117 3.20989 24.2314C3.2866 25.914 3.5675 26.8277 3.80432 27.4357C4.08079 28.1853 4.52176 28.8633 5.09479 29.4203C5.65158 29.9932 6.32975 30.4342 7.0794 30.7107C7.68726 30.9476 8.60095 31.2284 10.2836 31.3051C12.1033 31.3876 12.6488 31.4058 17.2575 31.4058C21.8662 31.4058 22.4117 31.3876 24.2314 31.3051C25.914 31.2284 26.8277 30.9476 27.4357 30.7107C28.241 30.3981 28.8163 30.0243 29.4203 29.4203C29.9932 28.8635 30.4342 28.1853 30.7107 27.4357C30.9476 26.8277 31.2284 25.914 31.3051 24.2314C31.3876 22.4117 31.4058 21.8653 31.4058 17.2575C31.4058 12.6497 31.3876 12.1033 31.3051 10.2836C31.2284 8.60095 30.9476 7.68726 30.7107 7.0794C30.3981 6.27406 30.0243 5.6988 29.4203 5.09479C28.8163 4.49175 28.241 4.11687 27.4357 3.80432C26.8277 3.5675 25.914 3.2866 24.2314 3.20989ZM15.054 22.5774C15.7526 22.8668 16.5013 23.0157 17.2575 23.0157C18.7848 23.0157 20.2493 22.409 21.3292 21.3292C22.4092 20.2493 23.0159 18.7846 23.0159 17.2575C23.0159 15.7304 22.4092 14.2657 21.3292 13.1858C20.2493 12.1059 18.7848 11.4992 17.2575 11.4992C16.5013 11.4992 15.7526 11.6482 15.054 11.9376C14.3553 12.2269 13.7205 12.6511 13.1858 13.1858C12.6511 13.7205 12.227 14.3553 11.9376 15.0539C11.6482 15.7525 11.4993 16.5013 11.4993 17.2575C11.4993 18.0137 11.6482 18.7625 11.9376 19.4611C12.227 20.1597 12.6511 20.7945 13.1858 21.3292C13.7205 21.8638 14.3553 22.2881 15.054 22.5774ZM10.9853 10.9852C12.6488 9.32169 14.905 8.38713 17.2575 8.38713C19.6102 8.38713 21.8664 9.32169 23.5298 10.9852C25.1933 12.6487 26.1279 14.905 26.1279 17.2575C26.1279 19.61 25.1933 21.8662 23.5298 23.5298C21.8664 25.1933 19.6102 26.1279 17.2575 26.1279C14.905 26.1279 12.6488 25.1933 10.9853 23.5298C9.32175 21.8662 8.38719 19.61 8.38719 17.2575C8.38719 14.905 9.32175 12.6487 10.9853 10.9852ZM28.0947 9.70872C28.4879 9.31549 28.7088 8.78217 28.7088 8.22607C28.7088 7.66995 28.4879 7.13663 28.0947 6.74341C27.7014 6.35019 27.1682 6.12928 26.612 6.12928C26.056 6.12928 25.5226 6.35019 25.1294 6.74341C24.7361 7.13663 24.5152 7.66995 24.5152 8.22607C24.5152 8.78217 24.7361 9.31549 25.1294 9.70872C25.5226 10.1019 26.056 10.3229 26.612 10.3229C27.1682 10.3229 27.7014 10.1019 28.0947 9.70872Z" fill="#DF5413"/>
</svg>
