<svg width="34" height="34" viewBox="0 0 34 34" fill="none" xmlns="http://www.w3.org/2000/svg">
<path fill-rule="evenodd" clip-rule="evenodd" d="M0 2.76574C0 2.03223 0.291393 1.32875 0.810071 0.810071C1.32875 0.291393 2.03223 0 2.76574 0H30.3404C30.7037 0 31.0633 0.0715427 31.3988 0.210535C31.7344 0.349527 32.0392 0.553245 32.2961 0.810071C32.5529 1.0669 32.7566 1.37179 32.8957 1.70734C33.0346 2.0429 33.1062 2.40254 33.1062 2.76574V30.3404C33.1062 30.7037 33.0346 31.0633 32.8957 31.3988C32.7566 31.7344 32.5529 32.0392 32.2961 32.2961C32.0392 32.5529 31.7344 32.7566 31.3988 32.8957C31.0633 33.0346 30.7037 33.1062 30.3404 33.1062H2.76574C2.03223 33.1062 1.32875 32.8147 0.810071 32.2961C0.291393 31.7774 0 31.074 0 30.3404V2.76574ZM13.1045 12.6217H17.5877V14.8744C18.2339 13.579 19.8899 12.4148 22.3777 12.4148C27.1464 12.4148 28.2782 14.993 28.2782 19.7236V28.4851H23.4502V20.801C23.4502 18.1071 22.804 16.5876 21.1604 16.5876C18.8809 16.5876 17.9325 18.2257 17.9325 20.801V28.4851H13.1045V12.6217ZM4.82798 28.2782H9.65597V12.4148H4.82798V28.2782ZM10.3457 7.24197C10.3457 7.64956 10.2654 8.05315 10.1094 8.42971C9.95345 8.80626 9.72482 9.14842 9.43662 9.43662C9.14842 9.72482 8.80626 9.95345 8.42971 10.1094C8.05315 10.2654 7.64956 10.3457 7.24197 10.3457C6.8344 10.3457 6.4308 10.2654 6.05424 10.1094C5.67767 9.95345 5.33554 9.72482 5.04732 9.43662C4.75912 9.14842 4.53051 8.80626 4.37452 8.42971C4.21856 8.05315 4.13827 7.64956 4.13827 7.24197C4.13827 6.41882 4.46527 5.62938 5.04732 5.04732C5.62938 4.46527 6.41882 4.13827 7.24197 4.13827C8.06513 4.13827 8.85457 4.46527 9.43662 5.04732C10.0187 5.62938 10.3457 6.41882 10.3457 7.24197Z" fill="#DF5413"/>
</svg>
