<svg width="36" height="36" viewBox="0 0 36 36" fill="none" xmlns="http://www.w3.org/2000/svg">
<g id="&#240;&#159;&#166;&#134; icon &#34;linkedIn fill&#34;">
<path id="Vector" fill-rule="evenodd" clip-rule="evenodd" d="M0.0994873 2.93236C0.0994873 2.15465 0.408434 1.40879 0.958358 0.858871C1.50828 0.308947 2.25414 0 3.03184 0H32.2676C32.6528 0 33.0341 0.0758526 33.3898 0.223218C33.7456 0.370583 34.0688 0.586573 34.3412 0.858871C34.6134 1.13117 34.8294 1.45443 34.9769 1.81019C35.1241 2.16596 35.2001 2.54727 35.2001 2.93236V32.1681C35.2001 32.5533 35.1241 32.9346 34.9769 33.2903C34.8294 33.6461 34.6134 33.9693 34.3412 34.2417C34.0688 34.5139 33.7456 34.7299 33.3898 34.8774C33.0341 35.0246 32.6528 35.1006 32.2676 35.1006H3.03184C2.25414 35.1006 1.50828 34.7915 0.958358 34.2417C0.408434 33.6917 0.0994873 32.946 0.0994873 32.1681V2.93236ZM13.9934 13.3821H18.7467V15.7705C19.4319 14.397 21.1876 13.1627 23.8252 13.1627C28.8812 13.1627 30.0812 15.8962 30.0812 20.9118V30.2011H24.9624V22.0541C24.9624 19.1979 24.2772 17.5868 22.5346 17.5868C20.1178 17.5868 19.1123 19.3236 19.1123 22.0541V30.2011H13.9934V13.3821ZM5.21831 29.9817H10.3372V13.1627H5.21831V29.9817ZM11.0684 7.67824C11.0684 8.11038 10.9833 8.53829 10.8179 8.93753C10.6525 9.33677 10.4101 9.69953 10.1046 10.0051C9.79902 10.3107 9.43625 10.5531 9.03701 10.7184C8.63777 10.8838 8.20986 10.9689 7.77772 10.9689C7.3456 10.9689 6.91769 10.8838 6.51845 10.7184C6.11919 10.5531 5.75644 10.3107 5.45086 10.0051C5.1453 9.69953 4.90292 9.33677 4.73754 8.93753C4.57218 8.53829 4.48705 8.11038 4.48705 7.67824C4.48705 6.8055 4.83375 5.9685 5.45086 5.35138C6.06799 4.73426 6.90499 4.38757 7.77772 4.38757C8.65048 4.38757 9.48747 4.73426 10.1046 5.35138C10.7217 5.9685 11.0684 6.8055 11.0684 7.67824Z" fill="black"/>
</g>
</svg>
