<svg width="35" height="35" viewBox="0 0 35 35" fill="none" xmlns="http://www.w3.org/2000/svg">
<g id="&#240;&#159;&#166;&#134; icon &#34;telegram fill&#34;">
<path id="Vector" fill-rule="evenodd" clip-rule="evenodd" d="M35 17.526C35 27.1498 27.1984 34.9515 17.5746 34.9515C7.9508 34.9515 0.14917 27.1498 0.14917 17.526C0.14917 7.90221 7.9508 0.100586 17.5746 0.100586C27.1984 0.100586 35 7.90221 35 17.526ZM18.199 12.9648C16.5042 13.6698 13.1168 15.1289 8.03695 17.342C7.21206 17.6701 6.77995 17.991 6.74062 18.3048C6.67412 18.8351 7.33822 19.0439 8.24254 19.3282C8.36555 19.367 8.49302 19.4071 8.62368 19.4495C9.51339 19.7388 10.7102 20.0771 11.3324 20.0905C11.8968 20.1027 12.5267 19.87 13.2221 19.3924C17.9684 16.1886 20.4184 14.5692 20.5722 14.5343C20.6808 14.5097 20.8311 14.4787 20.9331 14.5693C21.0349 14.6598 21.025 14.8313 21.0141 14.8774C20.9483 15.1578 18.3415 17.5813 16.9924 18.8355C16.5719 19.2265 16.2737 19.5038 16.2127 19.5671C16.076 19.7091 15.9368 19.8433 15.803 19.9723C14.9765 20.769 14.3566 21.3666 15.8373 22.3424C16.549 22.8113 17.1183 23.199 17.6864 23.5859C18.3068 24.0084 18.9255 24.4298 19.7261 24.9546C19.9301 25.0884 20.1248 25.2272 20.3146 25.3624C21.0366 25.8772 21.6853 26.3395 22.4865 26.2657C22.9522 26.2229 23.4332 25.7851 23.6774 24.4793C24.2546 21.3933 25.3893 14.7067 25.6516 11.9513C25.6747 11.7099 25.6458 11.4009 25.6225 11.2653C25.5993 11.1297 25.5508 10.9365 25.3745 10.7934C25.1657 10.624 24.8435 10.5883 24.6993 10.5908C24.0438 10.6024 23.0383 10.952 18.199 12.9648Z" fill="black"/>
</g>
</svg>
