<svg width="33" height="33" viewBox="0 0 33 33" fill="none" xmlns="http://www.w3.org/2000/svg">
<path fill-rule="evenodd" clip-rule="evenodd" d="M32.8707 16.4353C32.8707 25.5123 25.5123 32.8707 16.4353 32.8707C7.35835 32.8707 0 25.5123 0 16.4353C0 7.35835 7.35835 0 16.4353 0C25.5123 0 32.8707 7.35835 32.8707 16.4353ZM17.0243 12.1333C15.4258 12.7982 12.2308 14.1744 7.43961 16.2618C6.66159 16.5712 6.25403 16.8739 6.21693 17.1699C6.15421 17.67 6.78058 17.867 7.63352 18.1352C7.74954 18.1717 7.86976 18.2095 7.993 18.2495C8.83216 18.5224 9.96097 18.8415 10.5478 18.8541C11.0801 18.8656 11.6742 18.6462 12.3302 18.1957C16.8068 15.1739 19.1176 13.6466 19.2626 13.6136C19.3651 13.5904 19.5068 13.5612 19.603 13.6466C19.699 13.732 19.6897 13.8938 19.6794 13.9372C19.6174 14.2016 17.1586 16.4875 15.8863 17.6705C15.4896 18.0392 15.2083 18.3008 15.1508 18.3605C15.0219 18.4944 14.8906 18.621 14.7644 18.7426C13.9848 19.4941 13.4002 20.0577 14.7967 20.9781C15.468 21.4203 16.005 21.786 16.5408 22.1509C17.1259 22.5494 17.7095 22.9469 18.4646 23.4419C18.657 23.568 18.8407 23.6989 19.0197 23.8265C19.7006 24.312 20.3124 24.7481 21.0682 24.6785C21.5074 24.6381 21.961 24.2252 22.1914 22.9936C22.7358 20.0829 23.8061 13.7762 24.0534 11.1774C24.0752 10.9497 24.0479 10.6583 24.026 10.5304C24.0041 10.4025 23.9584 10.2202 23.7921 10.0853C23.5951 9.9255 23.2912 9.8918 23.1552 9.89419C22.537 9.90509 21.5886 10.2349 17.0243 12.1333Z" fill="#DF5413"/>
</svg>
